<?xml version="1.0" encoding="utf-8"?>
<!-- Generator: Adobe Illustrator 18.1.1, SVG Export Plug-In . SVG Version: 6.00 Build 0)  -->
<svg version="1.1" xmlns="http://www.w3.org/2000/svg" xmlns:xlink="http://www.w3.org/1999/xlink" x="0px" y="0px"
	 viewBox="0 0 31 31" enable-background="new 0 0 31 31" xml:space="preserve">
<g id="Layer_2">
	<g>
		<defs>
			<rect id="SVGID_1_" x="795.6" y="17.1" width="1599.4" height="1202"/>
		</defs>
		<clipPath id="SVGID_2_">
			<use xlink:href="#SVGID_1_"  overflow="visible"/>
		</clipPath>
		<g clip-path="url(#SVGID_2_)">
			<g>
			</g>
		</g>
	</g>
	<g>
		<path fill="#78CBEF" d="M15.5,31C24.1,31,31,24.1,31,15.5C31,6.9,24.1,0,15.5,0C6.9,0,0,6.9,0,15.5C0,24.1,6.9,31,15.5,31"/>
		<path fill="#FFFFFF" d="M23.3,11.4c-0.6,0.3-1.2,0.4-1.8,0.5c0.7-0.4,1.2-1,1.4-1.8c-0.6,0.4-1.3,0.6-2,0.8c-0.6-0.6-1.4-1-2.3-1
			c-1.8,0-3.2,1.4-3.2,3.2c0,0.3,0,0.5,0.1,0.7c-2.6-0.1-5-1.4-6.6-3.3c-0.3,0.5-0.4,1-0.4,1.6c0,1.1,0.6,2.1,1.4,2.7
			c-0.5,0-1-0.2-1.4-0.4v0c0,1.5,1.1,2.8,2.6,3.1c-0.3,0.1-0.5,0.1-0.8,0.1c-0.2,0-0.4,0-0.6-0.1c0.4,1.3,1.6,2.2,3,2.2
			c-1.1,0.9-2.5,1.4-4,1.4c-0.3,0-0.5,0-0.8,0c1.4,0.9,3.1,1.4,4.9,1.4c5.9,0,9.1-4.9,9.1-9.1c0-0.1,0-0.3,0-0.4
			C22.3,12.6,22.9,12.1,23.3,11.4"/>
	</g>
</g>
<g id="Layer_1">
</g>
</svg>
